{"title":"Jigarthanda (2014) Web Rip XviD MP3 1CD - Shammu","uid":10930664,"size":744624652,"categoryP":"video","categoryS":"movies","magnet":"?xt=urn:btih:1eaf15f20a39dc26a1c2c2c7d484fb013ca9eed2&amp;dn=Jigarthanda+%282014%29+Web+Rip+XviD+MP3+1CD+-+Shammu&amp;tr=udp%3A%2F%2Ftracker.openbittorrent.com%3A80&amp;tr=udp%3A%2F%2Fopen.demonii.com%3A1337&amp;tr=udp%3A%2F%2Ftracker.coppersurfer.tk%3A6969&amp;tr=udp%3A%2F%2Fexodus.desync.com%3A6969","seeders":5,"leechers":2,"uploader":"TeamXDN","files":1,"time":1409399460,"description":"Jigarthanda (2014) Web Rip XviD MP3 1CD - Shammu\n\nFormat : AVI\nFormat/Info : Audio Video Interleave\nFile size : 710 MiB\nDuration : 2h 43mn\nOverall bit rate : 609 Kbps\n\nVideo\nID : 0\nFormat : MPEG-4 Visual\nFormat profile : Advanced Simple@L5\nFormat settings, BVOP : 2\nFormat settings, QPel : Yes\nFormat settings, GMC : No warppoints\nFormat settings, Matrix : Default (H.263)\nCodec ID : XVID\nCodec ID/Hint : XviD\nDuration : 2h 43mn\nBit rate : 522 Kbps\nWidth : 608 pixels\nHeight : 252 pixels\nDisplay aspect ratio : 2.40:1\nFrame rate : 29.970 fps\nColor space : YUV\nChroma subsampling : 4:2:0\nBit depth : 8 bits\nScan type : Progressive\nCompression mode : Lossy\nBits/(Pixel*Frame) : 0.114\nStream size : 608 MiB (86%)\nWriting library : XviD 1.2.1 (UTC 2008-12-04)\n\nAudio\nID : 1\nFormat : MPEG Audio\nFormat version : Version 1\nFormat profile : Layer 3\nMode : Joint stereo\nMode extension : MS Stereo\nCodec ID : 55\nCodec ID/Hint : MP3\nDuration : 2h 43mn\nBit rate mode : Constant\nBit rate : 80.0 Kbps\nChannel(s) : 2 channels\nSampling rate : 32.0 KHz\nCompression mode : Lossy\nStream size : 93.3 MiB (13%)\nAlignment : Aligned on interleaves\nInterleave, duration : 133 ms (4.00 video frames)\nInterleave, preload duration : 216 ms\nTitle : [WEB HD] Jigarthanda (2014) UNTOUCHED\nWriting library : LAME3.99r\nEncoding settings : -m j -V 4 -q 2 -lowpass 13.5 -b 80","torrent":{"xt":"urn:btih:1eaf15f20a39dc26a1c2c2c7d484fb013ca9eed2","amp;dn":"Jigarthanda+%282014%29+Web+Rip+XviD+MP3+1CD+-+Shammu","amp;tr":["udp%3A%2F%2Ftracker.openbittorrent.com%3A80","udp%3A%2F%2Fopen.demonii.com%3A1337","udp%3A%2F%2Ftracker.coppersurfer.tk%3A6969","udp%3A%2F%2Fexodus.desync.com%3A6969"],"infoHash":"1eaf15f20a39dc26a1c2c2c7d484fb013ca9eed2","infoHashBuffer":{"type":"Buffer","data":[30,175,21,242,10,57,220,38,161,194,194,199,212,132,251,1,60,169,238,210]},"announce":[],"urlList":[]}}